<?xml version="1.0" encoding="UTF-8"?>
<svg id="Layer_1" data-name="Layer 1" xmlns="http://www.w3.org/2000/svg" viewBox="0 0 960 960">
  <defs>
    <style>
      .cls-1 {
        fill: #2489ca;
      }

      .cls-2 {
        fill: #0877b9;
      }

      .cls-3 {
        fill: #1070b3;
      }

      .cls-4 {
        fill: #3c99d4;
      }
    </style>
  </defs>
  <path class="cls-1" d="m34.79,344.15s-22.11-15.94,4.42-37.22l61.81-55.27s17.69-18.61,36.39-2.4l570.39,431.84v207.08s-.28,32.52-42.01,28.92L34.79,344.15Z"/>
  <path class="cls-3" d="m181.81,477.63l-147.02,133.66s-15.11,11.24,0,31.32l68.26,62.09s16.21,17.41,40.16-2.4l155.86-118.19-117.26-106.49Z"/>
  <path class="cls-2" d="m439.92,478.73l269.63-205.88-1.75-205.97s-11.51-44.95-49.93-21.56l-358.79,326.55,140.85,106.86Z"/>
  <path class="cls-4" d="m665.79,917.39c15.66,16.03,34.64,10.78,34.64,10.78l210.12-103.54c26.9-18.33,23.12-41.08,23.12-41.08V165.26c0-27.17-27.82-36.57-27.82-36.57l-182.11-87.79c-39.79-24.6-65.86,4.42-65.86,4.42,0,0,33.53-24.13,49.93,21.56v817.53c0,5.62-1.2,11.15-3.59,16.12-4.79,9.67-15.2,18.7-40.16,14.92l1.75,1.93Z"/>
</svg>